<?xml version="1.0" standalone="no"?>
<!DOCTYPE svg PUBLIC "-//W3C//DTD SVG 20010904//EN"
 "http://www.w3.org/TR/2001/REC-SVG-20010904/DTD/svg10.dtd">
<svg version="1.0" xmlns="http://www.w3.org/2000/svg"
 width="380.000000pt" height="380.000000pt" viewBox="0 0 380.000000 380.000000"
 preserveAspectRatio="xMidYMid meet">

<g transform="translate(0.000000,380.000000) scale(0.100000,-0.100000)"
fill="#000000" stroke="none">
<path d="M1693 3780 c-70 -10 -285 -65 -311 -80 -9 -6 -52 -25 -94 -44 -388
-173 -699 -573 -785 -1011 -16 -82 -18 -192 -20 -1305 -3 -1172 -3 -1216 15
-1250 11 -19 37 -45 58 -57 l39 -23 1297 0 c895 0 1305 3 1325 11 38 14 72 47
89 88 22 53 21 2278 -2 2441 -21 159 -65 304 -133 445 -132 273 -346 494 -613
635 -119 62 -201 93 -336 126 -91 22 -135 27 -287 29 -99 2 -208 0 -242 -5z
m-278 -811 c139 -37 261 -135 321 -259 50 -102 56 -155 54 -429 -1 -135 -2
-250 -1 -256 1 -6 45 -10 111 -10 l110 0 0 281 c0 253 2 289 20 346 60 196
253 338 460 338 133 0 255 -55 350 -157 68 -73 92 -114 114 -200 23 -89 24
-1202 1 -1354 -57 -376 -307 -694 -655 -832 -153 -61 -212 -71 -400 -72 -169
0 -179 1 -289 33 -294 84 -516 263 -664 532 -38 70 -90 219 -108 309 -7 35
-13 289 -16 688 -4 568 -3 638 12 690 62 215 249 361 465 362 41 1 93 -4 115
-10z"/>
<path d="M1210 2594 c-120 -52 -173 -198 -116 -320 50 -108 185 -162 292 -118
121 50 179 172 142 295 -15 52 -73 117 -122 140 -50 23 -147 24 -196 3z"/>
<path d="M2383 2589 c-72 -35 -133 -133 -133 -212 0 -121 116 -237 239 -237
86 0 172 53 212 131 23 46 26 153 5 202 -19 45 -94 115 -136 127 -60 17 -141
12 -187 -11z"/>
<path d="M2345 1572 c-19 -18 -148 -63 -238 -84 -70 -16 -125 -21 -232 -20
-144 0 -215 11 -344 53 -53 18 -65 19 -73 8 -8 -11 -9 -10 -4 3 3 10 1 20 -4
23 -14 9 -12 -58 3 -131 26 -121 112 -228 240 -296 l82 -43 120 0 c117 0 122
1 197 37 106 50 171 114 219 212 21 43 41 97 44 120 9 57 3 130 -10 118z"/>
</g>
</svg>
