<?xml version="1.0" encoding="utf-8"?>
<svg id="master-artboard" viewBox="0 0 1400 980" version="1.1" xmlns="http://www.w3.org/2000/svg" x="0px" y="0px" style="enable-background:new 0 0 1400 980;" width="1400px" height="980px"><defs><style id="ee-google-fonts">@import url(https://fonts.googleapis.com/css?family=Asset:400);</style></defs><rect id="ee-background" x="0" y="0" width="1400" height="980" style="fill: white; fill-opacity: 1; pointer-events: none;"/>








































<g transform="matrix(4.899999015808181, 0, 0, 4.899999015808181, 170.80011811828174, 4.900010841373444)"><g id="g-1" transform="matrix(1, 0, 0, 1, 0, 0)">
	<g id="g-2">
		<path class="st0" d="M58,49h100v100H58V49z" style="fill: rgb(237, 177, 80);"/>
	</g>
</g></g><path d="M 986.9847412109375 336.58184814453125 L 497.3479919433594 339.50506591796875 L 986.9847412109375 336.58184814453125 Z" style="fill: rgb(237, 177, 80); fill-opacity: 1; stroke: rgb(0, 0, 0); stroke-opacity: 1; stroke-width: 0; paint-order: fill;"/><g transform="matrix(2.333714246749878, 0, 0, 0.7480138409540951, 322.70928955078125, -338.4677652542797)"><g id="g-5" transform="matrix(1, 0, 0, 1, 0, 0)">
	<g id="g-6">
		<g>
			<path class="st0" d="M163,887H57V781h106V887z M63,881h94v-94H63V881z" style="fill: rgb(51, 51, 51);"/>
		</g>
	</g>
</g></g><g transform="matrix(2.3337142467498784, 0, 0, 0.7480138540267945, 563.6535309860823, -338.41774846565346)"><g id="g-7" transform="matrix(1, 0, 0, 1, 0, 0)">
	<g id="g-8">
		<g>
			<path class="st0" d="M163,887H57V781h106V887z M63,881h94v-94H63V881z" style="fill: rgb(51, 51, 51);"/>
		</g>
	</g>
</g></g><path d="M 110.0234146118164 576.2846069335938 L 440.34552001953125 516.3589477539062 L 441.80712890625 608.4398803710938 L 111.48501586914062 665.4423828125" style="fill: rgb(99, 50, 42); fill-opacity: 1; stroke: rgb(0, 0, 0); stroke-opacity: 1; stroke-width: 0; paint-order: fill;" transform="matrix(1.4757707699186406, 0, 0, 1.4757707699186406, 292.59221619019894, -348.7532853565143)"/><path d="M 291.6400146484375 149 C 291.32000732421875 147.73333740234375 290.98333740234375 146.50332641601562 290.6300048828125 145.30999755859375 C 290.27667236328125 144.11666870117188 289.9266662597656 143.01666259765625 289.5799865722656 142.00999450683594 C 289.239990234375 141.00332641601562 288.9166564941406 140.1233367919922 288.6099853515625 139.3699951171875 C 288.3033447265625 138.61000061035156 288.0400085449219 138.02999877929688 287.82000732421875 137.6300048828125 C 287.5466613769531 137.1366729736328 287.2366638183594 136.72332763671875 286.8900146484375 136.38999938964844 C 286.53668212890625 136.05667114257812 286.1600036621094 135.78334045410156 285.760009765625 135.57000732421875 C 285.35333251953125 135.35665893554688 284.9333190917969 135.20333862304688 284.5 135.11000061035156 C 284.05999755859375 135.01666259765625 283.6166687011719 134.97000122070312 283.1700134277344 134.97000122070312 L 283.1700134277344 133.8699951171875 L 301.7699890136719 133.8699951171875 L 301.7699890136719 135.00999450683594 C 301.2833251953125 135.00999450683594 300.9200134277344 135.15333557128906 300.67999267578125 135.44000244140625 C 300.44000244140625 135.72000122070312 300.32000732421875 136.086669921875 300.32000732421875 136.5399932861328 C 300.32000732421875 136.72666931152344 300.34332275390625 137 300.3900146484375 137.36000061035156 C 300.4433288574219 137.7133331298828 300.5199890136719 138.1300048828125 300.6199951171875 138.61000061035156 C 300.71331787109375 139.0833282470703 300.836669921875 139.61000061035156 300.989990234375 140.19000244140625 C 301.1433410644531 140.76333618164062 301.32000732421875 141.3699951171875 301.5199890136719 142.00999450683594 C 301.7266540527344 142.64334106445312 301.9566650390625 143.2933349609375 302.2099914550781 143.9600067138672 C 302.46331787109375 144.6266632080078 302.7466735839844 145.28334045410156 303.05999755859375 145.92999267578125 C 303.3733215332031 145.01666259765625 303.6766662597656 144.1266632080078 303.9700012207031 143.25999450683594 C 304.2699890136719 142.39999389648438 304.5333251953125 141.586669921875 304.760009765625 140.82000732421875 C 304.99334716796875 140.05332946777344 305.17999267578125 139.3433380126953 305.32000732421875 138.69000244140625 C 305.4599914550781 138.0366668701172 305.5299987792969 137.4600067138672 305.5299987792969 136.9600067138672 C 305.5299987792969 136.36000061035156 305.4100036621094 135.88999938964844 305.1700134277344 135.5500030517578 C 304.92333984375 135.2100067138672 304.51666259765625 135.0399932861328 303.95001220703125 135.0399932861328 L 303.95001220703125 133.8699951171875 L 320.0899963378906 133.8699951171875 L 320.0899963378906 135 C 319.8233337402344 135 319.5899963378906 135.0399932861328 319.3900146484375 135.1199951171875 C 319.1966552734375 135.2066650390625 319.03668212890625 135.32333374023438 318.9100036621094 135.47000122070312 C 318.77667236328125 135.61666870117188 318.67999267578125 135.78334045410156 318.6199951171875 135.97000122070312 C 318.5533447265625 136.1566619873047 318.5199890136719 136.34666442871094 318.5199890136719 136.5399932861328 C 318.5199890136719 136.82000732421875 318.566650390625 137.2899932861328 318.6600036621094 137.9499969482422 C 318.760009765625 138.60333251953125 318.9166564941406 139.36666870117188 319.1300048828125 140.24000549316406 C 319.34332275390625 141.1133270263672 319.6199951171875 142.05332946777344 319.9599914550781 143.05999755859375 C 320.2933349609375 144.06666564941406 320.6933288574219 145.06333923339844 321.1600036621094 146.0500030517578 C 321.35333251953125 145.59666442871094 321.5466613769531 145.09666442871094 321.739990234375 144.5500030517578 C 321.94000244140625 144.00332641601562 322.1333312988281 143.43666076660156 322.32000732421875 142.85000610351562 C 322.5 142.26333618164062 322.6766662597656 141.6699981689453 322.8500061035156 141.07000732421875 C 323.01666259765625 140.47666931152344 323.1600036621094 139.9066619873047 323.2799987792969 139.36000061035156 C 323.3999938964844 138.81333923339844 323.4966735839844 138.30332946777344 323.57000732421875 137.8300018310547 C 323.6433410644531 137.35665893554688 323.67999267578125 136.94667053222656 323.67999267578125 136.60000610351562 C 323.67999267578125 136.4199981689453 323.64666748046875 136.23333740234375 323.58001708984375 136.0399932861328 C 323.5133361816406 135.85333251953125 323.413330078125 135.67999267578125 323.2799987792969 135.52000427246094 C 323.1400146484375 135.36666870117188 322.9666748046875 135.24000549316406 322.760009765625 135.13999938964844 C 322.5466613769531 135.03334045410156 322.2966613769531 134.97999572753906 322.010009765625 134.97999572753906 L 322.010009765625 133.8699951171875 L 331.3500061035156 133.8699951171875 L 331.3500061035156 134.97000122070312 C 330.5433349609375 134.97000122070312 329.82666015625 135.10333251953125 329.20001220703125 135.3699951171875 C 328.566650390625 135.6300048828125 327.9966735839844 136.02000427246094 327.489990234375 136.5399932861328 C 326.9766540527344 137.06666564941406 326.5033264160156 137.72332763671875 326.07000732421875 138.50999450683594 C 325.63665771484375 139.2899932861328 325.21331787109375 140.1999969482422 324.79998779296875 141.24000549316406 C 324.3933410644531 142.27999877929688 323.9800109863281 143.44667053222656 323.55999755859375 144.74000549316406 C 323.1400146484375 146.03334045410156 322.69000244140625 147.45333862304688 322.2099914550781 149 L 310.010009765625 149 C 309.4433288574219 147.13333129882812 308.9266662597656 145.47000122070312 308.4599914550781 144.00999450683594 C 307.9866638183594 142.55667114257812 307.5466613769531 141.26333618164062 307.1400146484375 140.1300048828125 C 306.6666564941406 141.2566680908203 306.20001220703125 142.55667114257812 305.739990234375 144.02999877929688 C 305.2799987792969 145.50999450683594 304.7533264160156 147.1666717529297 304.1600036621094 149 L 291.6400146484375 149 ZM 335.5252380371094 149.6699981689453 C 335.4385681152344 149.50332641601562 335.355224609375 149.27333068847656 335.2752380371094 148.97999572753906 C 335.201904296875 148.68666076660156 335.13189697265625 148.36000061035156 335.0652160644531 148 C 334.9985656738281 147.63999938964844 334.93524169921875 147.26666259765625 334.875244140625 146.8800048828125 C 334.8152160644531 146.4933319091797 334.7652282714844 146.1199951171875 334.7252197265625 145.75999450683594 C 334.68524169921875 145.39334106445312 334.6552429199219 145.05999755859375 334.6352233886719 144.75999450683594 C 334.62188720703125 144.4600067138672 334.615234375 144.22000122070312 334.615234375 144.0399932861328 L 335.80523681640625 144.0399932861328 C 336.0652160644531 144.56666564941406 336.4052429199219 145.03334045410156 336.8252258300781 145.44000244140625 C 337.2452392578125 145.84666442871094 337.7252197265625 146.1999969482422 338.2652282714844 146.5 C 338.80523681640625 146.80667114257812 339.39190673828125 147.06666564941406 340.0252380371094 147.27999877929688 C 340.6585693359375 147.48666381835938 341.3152160644531 147.6566619873047 341.9952392578125 147.7899932861328 C 342.681884765625 147.9166717529297 343.3785705566406 148.00999450683594 344.0852355957031 148.07000732421875 C 344.7919006347656 148.1300048828125 345.4885559082031 148.16000366210938 346.17523193359375 148.16000366210938 C 347.3019104003906 148.16000366210938 348.2385559082031 148.11000061035156 348.9852294921875 148.00999450683594 C 349.7385559082031 147.91000366210938 350.3418884277344 147.77667236328125 350.79522705078125 147.61000061035156 C 351.2485656738281 147.44332885742188 351.5685729980469 147.24667358398438 351.7552185058594 147.02000427246094 C 351.94189453125 146.7933349609375 352.03521728515625 146.54666137695312 352.03521728515625 146.27999877929688 C 352.03521728515625 145.89999389648438 351.87188720703125 145.58999633789062 351.54522705078125 145.35000610351562 C 351.21856689453125 145.11000061035156 350.77191162109375 144.9199981689453 350.2052307128906 144.77999877929688 C 349.6385498046875 144.63999938964844 348.97857666015625 144.52999877929688 348.2252197265625 144.4499969482422 C 347.4718933105469 144.3766632080078 346.6685485839844 144.30667114257812 345.8152160644531 144.24000549316406 C 344.96856689453125 144.17999267578125 344.1018981933594 144.1133270263672 343.2152404785156 144.0399932861328 C 342.3218994140625 143.96665954589844 341.451904296875 143.85665893554688 340.605224609375 143.7100067138672 C 339.7585754394531 143.56333923339844 338.95855712890625 143.3699951171875 338.2052307128906 143.1300048828125 C 337.451904296875 142.89666748046875 336.7919006347656 142.586669921875 336.2252197265625 142.1999969482422 C 335.6585693359375 141.82000732421875 335.20855712890625 141.35000610351562 334.875244140625 140.7899932861328 C 334.5485534667969 140.22999572753906 334.3852233886719 139.55667114257812 334.3852233886719 138.77000427246094 C 334.3852233886719 138.0500030517578 334.5585632324219 137.4166717529297 334.9052429199219 136.8699951171875 C 335.2452392578125 136.31666564941406 335.7218933105469 135.8333282470703 336.3352355957031 135.4199981689453 C 336.94189453125 135.0066680908203 337.6685485839844 134.6566619873047 338.5152282714844 134.3699951171875 C 339.355224609375 134.08999633789062 340.2752380371094 133.86666870117188 341.2752380371094 133.6999969482422 C 342.2685546875 133.52667236328125 343.3218994140625 133.40333557128906 344.43524169921875 133.3300018310547 C 345.5485534667969 133.25 346.68524169921875 133.2100067138672 347.84521484375 133.2100067138672 C 348.7652282714844 133.2100067138672 349.66522216796875 133.24000549316406 350.54522705078125 133.3000030517578 C 351.431884765625 133.35333251953125 352.28521728515625 133.41000366210938 353.105224609375 133.47000122070312 C 353.931884765625 133.5366668701172 354.7218933105469 133.59666442871094 355.4752197265625 133.64999389648438 C 356.22857666015625 133.70333862304688 356.94189453125 133.72999572753906 357.615234375 133.72999572753906 C 358.03521728515625 133.72999572753906 358.4052429199219 133.72332763671875 358.7252197265625 133.7100067138672 C 359.03857421875 133.69000244140625 359.34521484375 133.66000366210938 359.6452331542969 133.6199951171875 C 359.9385681152344 133.586669921875 360.2385559082031 133.5366668701172 360.54522705078125 133.47000122070312 C 360.8518981933594 133.40333557128906 361.201904296875 133.31666564941406 361.59521484375 133.2100067138672 C 361.681884765625 133.38333129882812 361.76190185546875 133.60333251953125 361.8352355957031 133.8699951171875 C 361.9085693359375 134.1366729736328 361.97857666015625 134.42999267578125 362.04522705078125 134.75 C 362.1119079589844 135.07000732421875 362.17523193359375 135.40333557128906 362.2352294921875 135.75 C 362.28857421875 136.08999633789062 362.3352355957031 136.4199981689453 362.375244140625 136.74000549316406 C 362.41522216796875 137.05999755859375 362.44189453125 137.36000061035156 362.4552307128906 137.63999938964844 C 362.4752197265625 137.913330078125 362.4852294921875 138.13999938964844 362.4852294921875 138.32000732421875 L 361.16522216796875 138.32000732421875 C 361.0585632324219 138.02000427246094 360.84521484375 137.71665954589844 360.5252380371094 137.41000366210938 C 360.2118835449219 137.10333251953125 359.8085632324219 136.80999755859375 359.3152160644531 136.52999877929688 C 358.8218994140625 136.25 358.2552185058594 135.99000549316406 357.615234375 135.75 C 356.9752197265625 135.50332641601562 356.2752380371094 135.2899932861328 355.5152282714844 135.11000061035156 C 354.7552185058594 134.92999267578125 353.951904296875 134.7899932861328 353.105224609375 134.69000244140625 C 352.25189208984375 134.58999633789062 351.37188720703125 134.5399932861328 350.4652404785156 134.5399932861328 C 349.951904296875 134.5399932861328 349.4985656738281 134.586669921875 349.105224609375 134.67999267578125 C 348.7052307128906 134.77333068847656 348.3685607910156 134.89666748046875 348.09521484375 135.0500030517578 C 347.8218994140625 135.20333862304688 347.615234375 135.3800048828125 347.4752197265625 135.5800018310547 C 347.3352355957031 135.77333068847656 347.2652282714844 135.97666931152344 347.2652282714844 136.19000244140625 C 347.2652282714844 136.64999389648438 347.4219055175781 137.02667236328125 347.7352294921875 137.32000732421875 C 348.0485534667969 137.6133270263672 348.4752197265625 137.85000610351562 349.0152282714844 138.02999877929688 C 349.55523681640625 138.20333862304688 350.181884765625 138.336669921875 350.8952331542969 138.42999267578125 C 351.6085510253906 138.52333068847656 352.3685607910156 138.60665893554688 353.17523193359375 138.67999267578125 C 353.9885559082031 138.74667358398438 354.8185729980469 138.82000732421875 355.66522216796875 138.89999389648438 C 356.51190185546875 138.97999572753906 357.33856201171875 139.08999633789062 358.1452331542969 139.22999572753906 C 358.95855712890625 139.3766632080078 359.7218933105469 139.57000732421875 360.43524169921875 139.80999755859375 C 361.1485595703125 140.05667114257812 361.7752380371094 140.3766632080078 362.3152160644531 140.77000427246094 C 362.855224609375 141.1699981689453 363.2818908691406 141.6666717529297 363.59521484375 142.25999450683594 C 363.9018859863281 142.84666442871094 364.05523681640625 143.55667114257812 364.05523681640625 144.38999938964844 C 364.05523681640625 145.1566619873047 363.8785705566406 145.82000732421875 363.5252380371094 146.3800048828125 C 363.16522216796875 146.94000244140625 362.66522216796875 147.413330078125 362.0252380371094 147.8000030517578 C 361.39190673828125 148.19332885742188 360.64190673828125 148.50999450683594 359.7752380371094 148.75 C 358.9018859863281 148.99667358398438 357.9618835449219 149.18666076660156 356.9552307128906 149.32000732421875 C 355.94854736328125 149.4600067138672 354.89190673828125 149.55332946777344 353.78521728515625 149.60000610351562 C 352.6719055175781 149.64666748046875 351.55523681640625 149.6699981689453 350.43524169921875 149.6699981689453 C 349.43524169921875 149.6699981689453 348.49188232421875 149.64332580566406 347.605224609375 149.58999633789062 C 346.7252197265625 149.52999877929688 345.8518981933594 149.47000122070312 344.9852294921875 149.41000366210938 C 344.1185607910156 149.35000610351562 343.2352294921875 149.2899932861328 342.3352355957031 149.22999572753906 C 341.44189453125 149.17666625976562 340.4885559082031 149.14999389648438 339.4752197265625 149.14999389648438 C 339.0618896484375 149.14999389648438 338.6952209472656 149.16000366210938 338.375244140625 149.17999267578125 C 338.0618896484375 149.19332885742188 337.7585754394531 149.22000122070312 337.4652404785156 149.25999450683594 C 337.1719055175781 149.3000030517578 336.87188720703125 149.35333251953125 336.5652160644531 149.4199981689453 C 336.2652282714844 149.48666381835938 335.9185485839844 149.57000732421875 335.5252380371094 149.6699981689453 ZM 366.4342041015625 147.89999389648438 C 367.6075134277344 147.86000061035156 368.58087158203125 147.72332763671875 369.35418701171875 147.49000549316406 C 370.1275329589844 147.2566680908203 370.74420166015625 146.8800048828125 371.2041931152344 146.36000061035156 C 371.6641845703125 145.84666442871094 371.9908447265625 145.1699981689453 372.1842041015625 144.3300018310547 C 372.3775329589844 143.49000549316406 372.47418212890625 142.43666076660156 372.47418212890625 141.1699981689453 C 372.47418212890625 140.31666564941406 372.4241943359375 139.57000732421875 372.3241882324219 138.92999267578125 C 372.22418212890625 138.2899932861328 372.07086181640625 137.7433319091797 371.86419677734375 137.2899932861328 C 371.65753173828125 136.8300018310547 371.3941955566406 136.4499969482422 371.0741882324219 136.14999389648438 C 370.7475280761719 135.85000610351562 370.3608703613281 135.6133270263672 369.9141845703125 135.44000244140625 C 369.467529296875 135.26666259765625 368.95751953125 135.14666748046875 368.3841857910156 135.0800018310547 C 367.80419921875 135.0066680908203 367.1542053222656 134.97000122070312 366.4342041015625 134.97000122070312 L 366.4342041015625 133.8699951171875 L 390.6842041015625 133.8699951171875 L 390.6842041015625 134.97000122070312 C 389.60418701171875 134.97000122070312 388.6842041015625 135.05332946777344 387.9241943359375 135.22000122070312 C 387.1641845703125 135.3800048828125 386.5408630371094 135.69000244140625 386.05419921875 136.14999389648438 C 385.5675354003906 136.61000061035156 385.2142028808594 137.24000549316406 384.99420166015625 138.0399932861328 C 384.76751708984375 138.84666442871094 384.6541748046875 139.88999938964844 384.6541748046875 141.1699981689453 L 384.6541748046875 147.83999633789062 C 385.68084716796875 147.83999633789062 386.6741943359375 147.73333740234375 387.6341857910156 147.52000427246094 C 388.59417724609375 147.31333923339844 389.4975280761719 147.02667236328125 390.34417724609375 146.66000366210938 C 391.197509765625 146.2933349609375 391.9775390625 145.8633270263672 392.6842041015625 145.3699951171875 C 393.39752197265625 144.88333129882812 394.0141906738281 144.36000061035156 394.5341796875 143.8000030517578 C 395.05419921875 143.24000549316406 395.467529296875 142.663330078125 395.7742004394531 142.07000732421875 C 396.08087158203125 141.47000122070312 396.2575378417969 140.8800048828125 396.30419921875 140.3000030517578 L 397.5341796875 140.3000030517578 C 397.5341796875 140.6133270263672 397.5308532714844 140.99667358398438 397.5242004394531 141.4499969482422 C 397.5108642578125 141.90333557128906 397.49420166015625 142.39666748046875 397.47418212890625 142.92999267578125 C 397.4541931152344 143.4633331298828 397.4275207519531 144.01333618164062 397.3941955566406 144.5800018310547 C 397.3675231933594 145.15333557128906 397.33087158203125 145.7100067138672 397.2841796875 146.25 C 397.24420166015625 146.78334045410156 397.1941833496094 147.2899932861328 397.1341857910156 147.77000427246094 C 397.0741882324219 148.2433319091797 397.0108642578125 148.65333557128906 396.9441833496094 149 L 366.4342041015625 149 L 366.4342041015625 147.89999389648438 Z" transform="matrix(3.907162666320801, -0.436784029006958, 0.436784029006958, 3.907162666320801, -689.5436401367188, 123.55838012695312)" style="white-space: pre; fill: rgb(237, 177, 80); color: rgb(237, 177, 80);"/></svg>